<?xml version="1.0" standalone="no"?>
<!DOCTYPE svg PUBLIC "-//W3C//DTD SVG 20010904//EN"
 "http://www.w3.org/TR/2001/REC-SVG-20010904/DTD/svg10.dtd">
<svg version="1.0" xmlns="http://www.w3.org/2000/svg"
 width="1000.000000pt" height="1000.000000pt" viewBox="0 0 1000.000000 1000.000000"
 preserveAspectRatio="xMidYMid meet">
<metadata>
Created by potrace 1.11, written by Peter Selinger 2001-2013
</metadata>
<g transform="translate(0.000000,1000.000000) scale(0.100000,-0.100000)"
fill="#000000" stroke="none">
<path d="M4158 6778 c-16 -5 -28 -17 -28 -27 0 -10 -9 -26 -20 -36 -11 -10
-20 -23 -20 -30 0 -7 9 -20 20 -30 11 -10 20 -31 20 -47 0 -48 -110 -328 -129
-328 -3 0 -19 -11 -34 -25 -34 -32 -37 -92 -7 -150 26 -51 37 -56 79 -39 55
23 158 130 106 110 -11 -4 -13 -2 -8 7 5 6 19 28 31 49 13 20 29 39 37 42 8 3
15 14 15 24 0 10 13 31 30 47 16 16 37 48 46 72 9 24 21 43 26 43 19 0 106 98
112 127 13 58 -54 161 -121 189 -37 16 -115 17 -155 2z"/>
<path d="M4244 6278 c-34 -27 -73 -70 -74 -80 0 -17 38 -7 57 15 29 31 57 77
51 82 -3 3 -18 -5 -34 -17z"/>
<path d="M2925 6231 c-75 -18 -188 -123 -230 -214 -32 -68 -34 -205 -5 -317
11 -42 20 -108 20 -150 0 -73 6 -97 91 -413 26 -97 13 -121 -106 -187 -95 -53
-321 -225 -397 -302 -81 -84 -147 -206 -151 -278 -1 -32 2 -44 11 -42 8 1 12
-11 12 -35 1 -117 132 -232 305 -269 132 -29 290 -12 396 41 67 34 161 125
210 202 100 159 125 331 93 645 -5 48 -3 72 6 83 7 8 58 39 113 67 55 29 153
88 216 130 l116 77 6 -58 c4 -37 15 -75 32 -102 47 -78 142 -194 172 -209 17
-9 41 -23 55 -32 14 -9 52 -22 86 -29 57 -12 64 -11 109 11 68 33 134 104 270
293 66 91 121 164 123 163 1 -2 -2 -15 -9 -29 -9 -19 -9 -73 -1 -219 10 -168
9 -200 -4 -246 -12 -40 -15 -86 -12 -181 3 -112 6 -132 29 -176 35 -69 101
-110 176 -110 50 0 57 3 88 37 33 35 55 90 55 135 0 40 56 191 100 267 54 95
130 195 250 333 52 59 113 132 135 160 22 29 43 52 46 53 4 0 9 -20 12 -45 7
-51 35 -112 64 -137 102 -93 371 -44 530 96 l46 41 -7 -35 c-29 -148 -32 -306
-7 -390 17 -55 73 -142 107 -165 26 -18 44 -20 122 -19 108 2 113 5 252 150
120 125 189 213 257 329 69 118 163 255 176 255 10 0 3 -43 -19 -110 -103
-325 -82 -594 57 -745 72 -78 171 -95 271 -47 137 67 400 423 582 789 29 60
70 139 90 177 59 112 44 196 -25 130 -16 -15 -77 -103 -136 -194 -261 -406
-450 -649 -519 -666 -18 -5 -31 -1 -42 10 -26 26 -19 164 17 340 17 82 28 158
25 170 -7 30 60 214 130 355 80 163 74 221 -31 295 -81 56 -173 32 -280 -75
-32 -32 -61 -59 -65 -59 -3 0 -14 24 -24 53 -41 127 -115 236 -182 271 -77 39
-166 27 -247 -33 -28 -21 -65 -46 -84 -55 -84 -44 -179 -163 -261 -326 -72
-143 -234 -299 -427 -410 -64 -36 -89 -45 -139 -48 -108 -7 -138 30 -103 126
12 31 24 70 26 86 8 40 115 141 241 228 56 39 107 78 112 88 18 34 11 80 -16
107 -23 23 -31 25 -99 21 -66 -3 -79 -7 -131 -43 -32 -22 -94 -83 -138 -135
-45 -52 -145 -160 -222 -240 -101 -104 -150 -163 -172 -206 -17 -33 -38 -67
-48 -75 -10 -8 -51 -59 -92 -114 -41 -55 -78 -101 -82 -103 -4 -1 -11 39 -15
90 -3 51 -18 183 -31 293 -14 110 -28 230 -31 268 -3 37 -9 67 -13 67 -4 0
-11 11 -14 25 -9 34 -59 59 -107 52 -50 -7 -184 -93 -199 -129 -8 -18 -10 -47
-6 -81 7 -53 6 -55 -44 -128 -28 -41 -49 -81 -47 -91 6 -20 -31 -55 -171 -167
-170 -137 -220 -156 -262 -103 -19 23 -21 35 -15 86 3 32 22 102 40 154 19 52
32 99 29 104 -3 4 0 8 6 8 7 0 10 7 6 15 -3 8 -1 15 4 15 4 0 11 14 15 30 4
17 11 28 16 25 5 -4 6 1 3 9 -7 19 65 155 89 168 21 11 56 82 57 113 0 14 -16
30 -52 52 -135 81 -258 69 -320 -30 -24 -39 -98 -250 -98 -280 0 -24 -54 -65
-190 -145 -181 -105 -359 -195 -374 -189 -8 3 -23 50 -36 104 -12 54 -29 126
-37 160 -8 34 -11 72 -8 84 4 13 3 19 -2 16 -6 -4 -8 3 -6 17 3 13 -7 72 -22
132 -21 85 -25 121 -20 164 7 58 34 135 43 125 9 -9 32 67 32 108 0 50 -24 91
-67 111 -18 9 -37 16 -41 15 -4 -1 -20 -4 -37 -8z m3814 -281 c20 -10 51 -79
50 -108 0 -14 -2 -14 -9 3 -19 44 -10 -19 15 -110 14 -50 25 -102 25 -116 0
-48 -370 -564 -471 -656 -36 -33 -61 -33 -77 0 -12 24 -11 39 1 102 9 41 13
84 10 96 -4 12 -2 20 3 17 5 -4 9 10 10 30 1 53 86 304 138 407 8 17 20 41 25
55 22 50 98 182 125 216 50 63 111 88 155 64z m-2005 -276 c28 -40 47 -189 39
-316 -3 -60 -9 -108 -13 -108 -4 0 -9 82 -11 183 -4 165 -6 186 -26 225 -25
46 -19 56 11 16z m2173 -246 c-3 -8 -6 -5 -6 6 -1 11 2 17 5 13 3 -3 4 -12 1
-19z m-4069 -654 c2 -27 -2 -85 -7 -129 -19 -138 -138 -345 -209 -361 -15 -4
-53 -15 -84 -25 -69 -23 -148 -24 -188 -4 -55 29 -46 100 28 212 43 67 106
123 237 212 58 40 126 90 151 112 25 22 51 38 58 36 6 -2 12 -26 14 -53z m147
-524 c-45 -65 -200 -152 -268 -149 -14 0 -17 2 -7 6 87 29 225 114 275 168 31
34 31 20 0 -25z"/>
</g>
</svg>
